<svg id="Layer_1" data-name="Layer 1" xmlns="http://www.w3.org/2000/svg" viewBox="0 0 88 92"><defs><style>.cls-1{fill:#00a6fb;}</style></defs><title>logo</title><path class="cls-1" d="M59,4a8,8,0,1,0,8,8A8,8,0,0,0,59,4ZM23,22a8,8,0,1,0,8,8A8,8,0,0,0,23,22Zm72,0a8,8,0,1,0,8,8A8,8,0,0,0,95,22ZM57,23.82V38.18a11.2,11.2,0,0,1,4,0V23.82a11.2,11.2,0,0,1-4,0ZM83.7,34,68.36,42.51A12,12,0,0,1,70.3,46l15.34-8.52A11.75,11.75,0,0,1,83.7,34ZM34.29,34a11.85,11.85,0,0,1-1.95,3.49l15.31,8.62a12.1,12.1,0,0,1,1.9-3.52ZM59,42a8,8,0,1,0,8,8A8,8,0,0,0,59,42ZM47.68,53.93,32.35,62.5A12,12,0,0,1,34.3,66l15.3-8.55A12,12,0,0,1,47.68,53.93Zm22.59.16a12.67,12.67,0,0,1-.84,1.83h0a12.48,12.48,0,0,1-1.12,1.64L83.69,66a12.32,12.32,0,0,1,1.93-3.5ZM57,61.82V76.18a11.2,11.2,0,0,1,4,0V61.82a11.2,11.2,0,0,1-4,0ZM23,62a8,8,0,1,0,8,8A8,8,0,0,0,23,62Zm72,0a8,8,0,1,0,8,8A8,8,0,0,0,95,62ZM59,80a8,8,0,1,0,8,8A8,8,0,0,0,59,80Z" transform="translate(-15 -4)"/></svg>